<svg xmlns="http://www.w3.org/2000/svg" xmlns:xlink="http://www.w3.org/1999/xlink" width="252" height="72"><path d="M5.03-3.66L5.03-54.07L11.07-54.07L11.07-9.42L32.31-9.42L32.31-3.66L5.03-3.66ZM47.81-30.83L47.81-30.83Q40.54-34.38 40.54-42.19L40.54-42.19Q40.54-45.95 42.33-49.04L42.33-49.04Q46.13-55.51 54-55.51L54-55.51Q57.94-55.51 61.35-53.44L61.35-53.44Q67.46-49.68 67.46-42.19L67.46-42.19Q67.46-34.38 60.19-30.83L60.19-30.83Q69.50-27.25 69.50-17.33L69.50-17.33Q69.50-11.67 66.34-7.63L66.34-7.63Q62.12-2.21 54-2.21L54-2.21Q47.11-2.21 42.93-6.19L42.93-6.19Q38.53-10.37 38.53-17.33L38.53-17.33Q38.53-27.25 47.81-30.83ZM54-50.91L54-50.91Q50.38-50.91 48.09-48.30L48.09-48.30Q46.02-45.88 46.02-42.26L46.02-42.26Q46.02-39.87 46.90-37.93L46.90-37.93Q49.04-33.26 54.07-33.26L54.07-33.26Q56.95-33.26 58.96-35.05L58.96-35.05Q61.98-37.65 61.98-42.26L61.98-42.26Q61.98-46.76 58.96-49.25L58.96-49.25Q56.88-50.91 54-50.91ZM53.93-28.09L53.93-28.09Q49.25-28.09 46.48-24.64L46.48-24.64Q44.16-21.66 44.16-17.33L44.16-17.33Q44.16-13.18 46.41-10.41L46.41-10.41Q49.18-6.96 54-6.96L54-6.96Q58.85-6.96 61.66-10.41L61.66-10.41Q63.88-13.18 63.88-17.33L63.88-17.33Q63.88-22.75 60.57-25.63L60.57-25.63Q57.90-28.09 53.93-28.09ZM77.03-3.66L77.03-54.07L89.51-54.07Q95.59-54.07 99.42-51.33L99.42-51.33Q104.31-47.74 104.31-40.96L104.31-40.96Q104.31-31.04 94.89-28.13L94.89-28.13L105.68-3.66L99.07-3.66L89.26-27.18L82.65-27.18L82.65-3.66L77.03-3.66ZM88.63-48.73L82.65-48.73L82.65-32.34L88.70-32.34Q91.86-32.34 94.22-33.64L94.22-33.64Q98.54-35.89 98.54-40.82L98.54-40.82Q98.54-48.73 88.63-48.73L88.63-48.73ZM111.30-18.14L117.35-18.14Q117.77-7.49 126.56-7.49L126.56-7.49Q129.73-7.49 131.84-9.07L131.84-9.07Q134.79-11.36 134.79-15.47L134.79-15.47Q134.79-19.90 131.10-23.27L131.10-23.27Q128.57-25.52 122.41-29.07L122.41-29.07Q112.68-34.80 112.68-42.75L112.68-42.75Q112.68-47.78 115.84-51.26L115.84-51.26Q119.67-55.51 126.07-55.51L126.07-55.51Q137.99-55.51 139.61-41.17L139.61-41.17L133.70-41.17Q133.45-44.47 132.33-46.44L132.33-46.44Q130.08-50.41 126.07-50.41L126.07-50.41Q121.92-50.41 119.88-47.60L119.88-47.60Q118.44-45.60 118.44-43.21L118.44-43.21Q118.44-37.51 127.72-32.10L127.72-32.10Q133.45-28.76 136.51-25.70L136.51-25.70Q140.63-21.69 140.63-15.54L140.63-15.54Q140.63-9.74 136.93-6.19L136.93-6.19Q133.00-2.21 126.74-2.21L126.74-2.21Q118.90-2.21 114.54-7.98L114.54-7.98Q111.52-11.99 111.30-18.14L111.30-18.14ZM148.18-3.66L148.18-54.07L155.60-54.07L170.19-13.46L170.19-54.07L175.68-54.07L175.68-3.66L168.89-3.66L153.95-45.14L153.95-3.66L148.18-3.66ZM191.81-30.83L191.81-30.83Q184.54-34.38 184.54-42.19L184.54-42.19Q184.54-45.95 186.33-49.04L186.33-49.04Q190.13-55.51 198-55.51L198-55.51Q201.94-55.51 205.35-53.44L205.35-53.44Q211.46-49.68 211.46-42.19L211.46-42.19Q211.46-34.38 204.19-30.83L204.19-30.83Q213.50-27.25 213.50-17.33L213.50-17.33Q213.50-11.67 210.34-7.63L210.34-7.63Q206.12-2.21 198-2.21L198-2.21Q191.11-2.21 186.93-6.19L186.93-6.19Q182.53-10.37 182.53-17.33L182.53-17.33Q182.53-27.25 191.81-30.83ZM198-50.91L198-50.91Q194.38-50.91 192.09-48.30L192.09-48.30Q190.02-45.88 190.02-42.26L190.02-42.26Q190.02-39.87 190.90-37.93L190.90-37.93Q193.04-33.26 198.07-33.26L198.07-33.26Q200.95-33.26 202.96-35.05L202.96-35.05Q205.98-37.65 205.98-42.26L205.98-42.26Q205.98-46.76 202.96-49.25L202.96-49.25Q200.88-50.91 198-50.91ZM197.93-28.09L197.93-28.09Q193.25-28.09 190.48-24.64L190.48-24.64Q188.16-21.66 188.16-17.33L188.16-17.33Q188.16-13.18 190.41-10.41L190.41-10.41Q193.18-6.96 198-6.96L198-6.96Q202.85-6.96 205.66-10.41L205.66-10.41Q207.88-13.18 207.88-17.33L207.88-17.33Q207.88-22.75 204.57-25.63L204.57-25.63Q201.90-28.09 197.93-28.09ZM221.03-3.66L221.03-54.07L233.51-54.07Q239.59-54.07 243.42-51.33L243.42-51.33Q248.31-47.74 248.31-40.96L248.31-40.96Q248.31-31.04 238.89-28.13L238.89-28.13L249.68-3.66L243.07-3.66L233.26-27.18L226.65-27.18L226.65-3.66L221.03-3.66ZM232.63-48.73L226.65-48.73L226.65-32.34L232.70-32.34Q235.86-32.34 238.22-33.64L238.22-33.64Q242.54-35.89 242.54-40.82L242.54-40.82Q242.54-48.73 232.63-48.73L232.63-48.73Z"/></svg>
